<svg width="891" height="453" viewBox="0 0 891 453" fill="none" xmlns="http://www.w3.org/2000/svg">
<path fill-rule="evenodd" clip-rule="evenodd" d="M0.0102539 378.99V423H0.989767V378.99H74.0103V423H74.9898V378.99H148.01V423H148.99V378.99H222.01V423H222.99V378.99H296.01V423H296.99V378.99H370.01V423H370.99V378.99H444.01V423H444.99V378.99H518.01V423H518.99V378.99H592.01V423H592.99V378.99H666.01V423H666.99V378.99H740.01V423H740.99V378.99H814.01V423H814.99V378.99H888.01V423H888.99V378.99H891V378.01H888.99V304.99H891V304.01H888.99V230.99H891V230.01H888.99V156.99H891V156.01H888.99V82.9897H891V82.0102H888.99V8.98975H891V8.01022H888.99V-65.0103H891V-65.9898H888.99V-139.01H891V-139.99H888.99V-213.01H891V-213.99H888.99V-287.01H891V-287.99H888.99V-288H888.01V-287.99H814.99V-288H814.01V-287.99H740.99V-288H740.01V-287.99H666.99V-288H666.01V-287.99H592.99V-288H592.01V-287.99H518.99V-288H518.01V-287.99H444.99V-288H444.01V-287.99H370.99V-288H370.01V-287.99H296.99V-288H296.01V-287.99H222.99V-288H222.01V-287.99H148.99V-288H148.01V-287.99H74.9898V-288H74.0103V-287.99H0.989767V-288H0.0102539V-287.99H0V-287.01H0.0102539V-213.99H0V-213.01H0.0102539V-139.99H0V-139.01H0.0102539V-65.9898H0V-65.0103H0.0102539V8.01022H0V8.98975H0.0102539V82.0102H0V82.9897H0.0102539V156.01H0V156.99H0.0102539V230.01H0V230.99H0.0102539V304.01H0V304.99H0.0102539V378.01H0V378.99H0.0102539ZM888.01 -287.01H814.99V-213.99H888.01V-287.01ZM888.01 -213.01H814.99V-139.99H888.01V-213.01ZM888.01 -139.01H814.99V-65.9898H888.01V-139.01ZM888.01 -65.0103H814.99V8.01022H888.01V-65.0103ZM888.01 8.98975H814.99V82.0102H888.01V8.98975ZM888.01 82.9897H814.99V156.01H888.01V82.9897ZM888.01 156.99H814.99V230.01H888.01V156.99ZM888.01 230.99H814.99V304.01H888.01V230.99ZM888.01 304.99H814.99V378.01H888.01V304.99ZM814.01 304.99V378.01H740.99V304.99H814.01ZM814.01 230.99V304.01H740.99V230.99H814.01ZM814.01 156.99V230.01H740.99V156.99H814.01ZM814.01 82.9897V156.01H740.99V82.9897H814.01ZM814.01 8.98975V82.0102H740.99V8.98975H814.01ZM814.01 -65.0103V8.01022H740.99V-65.0103H814.01ZM814.01 -139.01V-65.9898H740.99V-139.01H814.01ZM814.01 -213.01V-139.99H740.99V-213.01H814.01ZM814.01 -287.01V-213.99H740.99V-287.01H814.01ZM740.01 -287.01H666.99V-213.99H740.01V-287.01ZM740.01 -213.01H666.99V-139.99H740.01V-213.01ZM740.01 -139.01H666.99V-65.9898H740.01V-139.01ZM740.01 -65.0103H666.99V8.01022H740.01V-65.0103ZM740.01 8.98975H666.99V82.0102H740.01V8.98975ZM740.01 82.9897H666.99V156.01H740.01V82.9897ZM740.01 156.99H666.99V230.01H740.01V156.99ZM740.01 230.99H666.99V304.01H740.01V230.99ZM740.01 304.99H666.99V378.01H740.01V304.99ZM666.01 304.99V378.01H592.99V304.99H666.01ZM666.01 230.99V304.01H592.99V230.99H666.01ZM666.01 156.99V230.01H592.99V156.99H666.01ZM666.01 82.9897V156.01H592.99V82.9897H666.01ZM666.01 8.98975V82.0102H592.99V8.98975H666.01ZM666.01 -65.0103V8.01022H592.99V-65.0103H666.01ZM666.01 -139.01V-65.9898H592.99V-139.01H666.01ZM666.01 -213.01V-139.99H592.99V-213.01H666.01ZM666.01 -287.01V-213.99H592.99V-287.01H666.01ZM592.01 -287.01H518.99V-213.99H592.01V-287.01ZM592.01 -213.01H518.99V-139.99H592.01V-213.01ZM592.01 -139.01H518.99V-65.9898H592.01V-139.01ZM592.01 -65.0103H518.99V8.01022H592.01V-65.0103ZM592.01 8.98975H518.99V82.0102H592.01V8.98975ZM592.01 82.9897H518.99V156.01H592.01V82.9897ZM592.01 156.99H518.99V230.01H592.01V156.99ZM592.01 230.99H518.99V304.01H592.01V230.99ZM592.01 304.99H518.99V378.01H592.01V304.99ZM518.01 304.99V378.01H444.99V304.99H518.01ZM518.01 230.99V304.01H444.99V230.99H518.01ZM518.01 156.99V230.01H444.99V156.99H518.01ZM518.01 82.9897V156.01H444.99V82.9897H518.01ZM518.01 8.98975V82.0102H444.99V8.98975H518.01ZM518.01 -65.0103V8.01022H444.99V-65.0103H518.01ZM518.01 -139.01V-65.9898H444.99V-139.01H518.01ZM518.01 -213.01V-139.99H444.99V-213.01H518.01ZM518.01 -287.01V-213.99H444.99V-287.01H518.01ZM444.01 -287.01H370.99V-213.99H444.01V-287.01ZM444.01 -213.01H370.99V-139.99H444.01V-213.01ZM444.01 -139.01H370.99V-65.9898H444.01V-139.01ZM444.01 -65.0103H370.99V8.01022H444.01V-65.0103ZM444.01 8.98975H370.99V82.0102H444.01V8.98975ZM444.01 82.9897H370.99V156.01H444.01V82.9897ZM444.01 156.99H370.99V230.01H444.01V156.99ZM444.01 230.99H370.99V304.01H444.01V230.99ZM444.01 304.99H370.99V378.01H444.01V304.99ZM370.01 304.99V378.01H296.99V304.99H370.01ZM370.01 230.99V304.01H296.99V230.99H370.01ZM370.01 156.99V230.01H296.99V156.99H370.01ZM370.01 82.9897V156.01H296.99V82.9897H370.01ZM370.01 8.98975V82.0102H296.99V8.98975H370.01ZM370.01 -65.0103V8.01022H296.99V-65.0103H370.01ZM370.01 -139.01V-65.9898H296.99V-139.01H370.01ZM370.01 -213.01V-139.99H296.99V-213.01H370.01ZM370.01 -287.01V-213.99H296.99V-287.01H370.01ZM296.01 -287.01H222.99V-213.99H296.01V-287.01ZM296.01 -213.01H222.99V-139.99H296.01V-213.01ZM296.01 -139.01H222.99V-65.9898H296.01V-139.01ZM296.01 -65.0103H222.99V8.01022H296.01V-65.0103ZM296.01 8.98975H222.99V82.0102H296.01V8.98975ZM296.01 82.9897H222.99V156.01H296.01V82.9897ZM296.01 156.99H222.99V230.01H296.01V156.99ZM296.01 230.99H222.99V304.01H296.01V230.99ZM296.01 304.99H222.99V378.01H296.01V304.99ZM222.01 304.99V378.01H148.99V304.99H222.01ZM222.01 230.99V304.01H148.99V230.99H222.01ZM222.01 156.99V230.01H148.99V156.99H222.01ZM222.01 82.9897V156.01H148.99V82.9897H222.01ZM222.01 8.98975V82.0102H148.99V8.98975H222.01ZM222.01 -65.0103V8.01022H148.99V-65.0103H222.01ZM222.01 -139.01V-65.9898H148.99V-139.01H222.01ZM222.01 -213.01V-139.99H148.99V-213.01H222.01ZM222.01 -287.01V-213.99H148.99V-287.01H222.01ZM148.01 -287.01H74.9898V-213.99H148.01V-287.01ZM148.01 -213.01H74.9898V-139.99H148.01V-213.01ZM148.01 -139.01H74.9898V-65.9898H148.01V-139.01ZM148.01 -65.0103H74.9898V8.01022H148.01V-65.0103ZM148.01 8.98975H74.9898V82.0102H148.01V8.98975ZM148.01 82.9897H74.9898V156.01H148.01V82.9897ZM148.01 156.99H74.9898V230.01H148.01V156.99ZM148.01 230.99H74.9898V304.01H148.01V230.99ZM148.01 304.99H74.9898V378.01H148.01V304.99ZM74.0103 304.99V378.01H0.989767V304.99H74.0103ZM74.0103 230.99V304.01H0.989767V230.99H74.0103ZM74.0103 156.99V230.01H0.989767V156.99H74.0103ZM74.0103 82.9897V156.01H0.989767V82.9897H74.0103ZM74.0103 8.98975V82.0102H0.989767V8.98975H74.0103ZM74.0103 -65.0103V8.01022H0.989767V-65.0103H74.0103ZM74.0103 -139.01V-65.9898H0.989767V-139.01H74.0103ZM74.0103 -213.01V-139.99H0.989767V-213.01H74.0103ZM74.0103 -287.01V-213.99H0.989767V-287.01H74.0103ZM891 452.99H0V452.01H891V452.99Z" fill="url(#paint0_radial_2545_91779)"/>
<defs>
<radialGradient id="paint0_radial_2545_91779" cx="0" cy="0" r="1" gradientUnits="userSpaceOnUse" gradientTransform="translate(444.991 -139.155) rotate(90) scale(427.678 513.1)">
<stop stop-color="#C1E1C6"/>
<stop offset="1" stop-color="#C1E1C6" stop-opacity="0"/>
</radialGradient>
</defs>
</svg>
