<svg width="20" height="20" viewBox="0 0 20 20" fill="none" xmlns="http://www.w3.org/2000/svg">
<g clip-path="url(#clip0_3664_144097)">
<rect width="20" height="20" fill="white" fill-opacity="0.01"/>
<path d="M10.1806 8.66879C9.95383 8.46702 9.56593 8.46702 9.33919 8.66879L1.75927 15.414C1.59471 15.5604 1.58291 15.7272 1.64805 15.8677C1.71751 16.0177 1.89392 16.166 2.17996 16.166H17.3398C17.6258 16.166 17.8022 16.0177 17.8717 15.8677C17.9368 15.7271 17.925 15.5604 17.7605 15.414L10.1806 8.66879Z" fill="#FFDA3A" stroke="white"/>
<path d="M9.1547 10.2032C9.29494 10.0817 9.29494 9.91948 9.1547 9.798L2.40949 3.95515C2.26661 3.83138 2.0562 3.80151 1.86757 3.86887C1.67803 3.93656 1.61133 4.05734 1.61133 4.15772L1.61133 15.8434C1.61133 15.9438 1.67803 16.0646 1.86757 16.1323C2.0562 16.1996 2.26661 16.1698 2.4095 16.046L2.73687 16.4239L2.4095 16.046L9.1547 10.2032Z" fill="#FFDA3A" stroke="white"/>
<path d="M10.3648 10.2032C10.2246 10.0817 10.2246 9.91948 10.3648 9.798L17.11 3.95515C17.2529 3.83138 17.4633 3.80151 17.652 3.86887C17.8415 3.93656 17.9082 4.05734 17.9082 4.15772L17.9082 15.8434C17.9082 15.9438 17.8415 16.0646 17.652 16.1323C17.4633 16.1996 17.2529 16.1698 17.11 16.046L16.7827 16.4239L17.11 16.046L10.3648 10.2032Z" fill="#FFDA3A" stroke="white"/>
<path d="M10.1806 11.3312C9.95383 11.533 9.56593 11.533 9.33919 11.3312L1.75927 4.586C1.59471 4.43957 1.58291 4.27285 1.64805 4.13226C1.71751 3.98231 1.89392 3.83398 2.17996 3.83398H17.3398C17.6258 3.83398 17.8022 3.98231 17.8717 4.13226C17.9368 4.27285 17.925 4.43957 17.7605 4.586L10.1806 11.3312Z" fill="#EABF09" stroke="white"/>
</g>
<defs>
<clipPath id="clip0_3664_144097">
<rect width="20" height="20" fill="white"/>
</clipPath>
</defs>
</svg>
