<svg width="16" height="17" viewBox="0 0 16 17" fill="none" xmlns="http://www.w3.org/2000/svg">
<g clip-path="url(#clip0_5829_44628)">
<rect width="16" height="16" transform="translate(0 16.6484) rotate(-90)" fill="white" fill-opacity="0.01"/>
<path d="M12.7892 1.98828L12.7892 14.8454C12.7892 14.924 12.8535 14.9883 12.932 14.9883L14.0035 14.9883C14.082 14.9883 14.1463 14.924 14.1463 14.8454L14.1463 1.98828C14.1463 1.90971 14.082 1.84542 14.0035 1.84542L12.932 1.84542C12.8535 1.84542 12.7892 1.90971 12.7892 1.98828ZM4.67669 10.649L4.67669 9.32935L10.7178 9.32935C10.7963 9.32935 10.8606 9.26507 10.8606 9.18649L10.8606 8.11507C10.8606 8.03649 10.7963 7.97221 10.7178 7.97221L4.67669 7.97221L4.67669 6.64899C4.67669 6.52935 4.53919 6.46328 4.44633 6.53649L1.91419 8.53649C1.89711 8.54986 1.8833 8.56693 1.87381 8.58642C1.86431 8.60592 1.85937 8.62731 1.85937 8.64899C1.85937 8.67068 1.86431 8.69207 1.87381 8.71157C1.8833 8.73106 1.89711 8.74813 1.91419 8.76149L4.44454 10.7615C4.53919 10.8347 4.67669 10.7686 4.67669 10.649Z" fill="#555555"/>
</g>
<defs>
<clipPath id="clip0_5829_44628">
<rect width="16" height="16" fill="white" transform="translate(0 16.6484) rotate(-90)"/>
</clipPath>
</defs>
</svg>
