<svg width="49" height="49" viewBox="0 0 49 49" fill="none" xmlns="http://www.w3.org/2000/svg">
<path d="M36.3621 9.1269C36.1988 9.1269 36.0354 9.08607 35.8925 9.0044C31.9725 6.98315 28.5833 6.12565 24.5204 6.12565C20.4779 6.12565 16.6396 7.08523 13.1483 9.0044C12.6583 9.26982 12.0458 9.08607 11.76 8.59607C11.6327 8.35729 11.6041 8.07807 11.6805 7.81846C11.7568 7.55884 11.932 7.33955 12.1683 7.20773C15.9658 5.14565 20.1308 4.08398 24.5204 4.08398C28.8692 4.08398 32.6667 5.04357 36.8317 7.18732C37.3421 7.45273 37.5258 8.06523 37.2604 8.55523C37.1797 8.72543 37.0526 8.86938 36.8936 8.97051C36.7347 9.07165 36.5505 9.12585 36.3621 9.1269ZM7.14584 19.8457C6.95764 19.8474 6.77264 19.797 6.61135 19.7C6.45005 19.603 6.31878 19.4633 6.23208 19.2962C6.14539 19.1292 6.10666 18.9414 6.12019 18.7536C6.13373 18.5659 6.199 18.3856 6.30876 18.2327C8.33001 15.3744 10.9025 13.1286 13.965 11.5565C20.3758 8.24898 28.5833 8.22857 35.0146 11.5361C38.0771 13.1082 40.6496 15.3336 42.6708 18.1715C42.7492 18.2812 42.805 18.4054 42.8351 18.5368C42.8652 18.6682 42.869 18.8042 42.8462 18.9371C42.8234 19.07 42.7745 19.197 42.7024 19.3109C42.6302 19.4248 42.5363 19.5233 42.4258 19.6007C41.9563 19.9273 41.3233 19.8252 40.9967 19.3556C39.2087 16.8248 36.8338 14.7651 34.0754 13.3532C28.2158 10.3519 20.7229 10.3519 14.8838 13.3736C12.1071 14.8027 9.77959 16.8444 7.94209 19.4169C7.77876 19.7027 7.47251 19.8457 7.14584 19.8457ZM19.9063 44.4886C19.7724 44.4902 19.6396 44.4638 19.5166 44.411C19.3935 44.3583 19.2828 44.2804 19.1917 44.1823C17.4154 42.4061 16.4558 41.2627 15.0879 38.7923C13.6792 36.2811 12.9442 33.2186 12.9442 29.9315C12.9442 23.8677 18.13 18.9269 24.5 18.9269C30.87 18.9269 36.0558 23.8677 36.0558 29.9315C36.0558 30.5031 35.6067 30.9523 35.035 30.9523C34.4633 30.9523 34.0142 30.5031 34.0142 29.9315C34.0142 24.9906 29.7471 20.9686 24.5 20.9686C19.2529 20.9686 14.9858 24.9906 14.9858 29.9315C14.9858 32.8715 15.6392 35.5869 16.8846 37.7919C18.1913 40.1398 19.0896 41.1402 20.6617 42.7327C21.0496 43.1411 21.0496 43.774 20.6617 44.1823C20.4371 44.3865 20.1717 44.4886 19.9063 44.4886ZM34.545 40.7115C32.1154 40.7115 29.9717 40.099 28.2158 38.8944C25.1738 36.8323 23.3567 33.484 23.3567 29.9315C23.3567 29.3598 23.8058 28.9106 24.3775 28.9106C24.9492 28.9106 25.3983 29.3598 25.3983 29.9315C25.3983 32.8102 26.8683 35.5256 29.3592 37.1998C30.8088 38.1798 32.5033 38.6494 34.545 38.6494C35.035 38.6494 35.8517 38.5882 36.6683 38.4452C37.2196 38.3431 37.7504 38.7106 37.8525 39.2823C37.9546 39.8336 37.5871 40.3644 37.0154 40.4665C35.8517 40.6911 34.8308 40.7115 34.545 40.7115ZM30.4413 44.9173C30.3596 44.9173 30.2575 44.8969 30.1758 44.8765C26.9296 43.9781 24.8063 42.7736 22.5808 40.589C21.1706 39.1965 20.0524 37.5367 19.2916 35.7067C18.5309 33.8767 18.1429 31.9133 18.1504 29.9315C18.1504 26.624 20.9679 23.929 24.4388 23.929C27.9096 23.929 30.7271 26.624 30.7271 29.9315C30.7271 32.1161 32.6258 33.8923 34.9738 33.8923C37.3217 33.8923 39.2204 32.1161 39.2204 29.9315C39.2204 22.2344 32.585 15.9869 24.4183 15.9869C18.62 15.9869 13.3117 19.2127 10.9229 24.2148C10.1267 25.8686 9.71834 27.8081 9.71834 29.9315C9.71834 31.524 9.86126 34.0352 11.0863 37.3019C11.2904 37.8327 11.025 38.4248 10.4942 38.6086C9.96334 38.8127 9.37126 38.5269 9.18751 38.0165C8.20371 35.4344 7.69866 32.6946 7.69709 29.9315C7.69709 27.4815 8.16668 25.2561 9.08543 23.3165C11.8008 17.6202 17.8238 13.9248 24.4183 13.9248C33.7079 13.9248 41.2621 21.0911 41.2621 29.9111C41.2621 33.2186 38.4446 35.9136 34.9738 35.9136C31.5029 35.9136 28.6854 33.2186 28.6854 29.9111C28.6854 27.7265 26.7867 25.9502 24.4388 25.9502C22.0908 25.9502 20.1921 27.7265 20.1921 29.9111C20.1921 33.4023 21.5396 36.669 24.01 39.119C25.9496 41.0381 27.8075 42.0998 30.6863 42.8961C31.2375 43.039 31.5438 43.6106 31.4008 44.1415C31.2988 44.6111 30.87 44.9173 30.4413 44.9173Z" fill="black"/>
</svg>
