<svg width="20" height="20" viewBox="0 0 20 20" fill="none" xmlns="http://www.w3.org/2000/svg">
<g clip-path="url(#clip0_3664_144101)">
<rect width="20" height="20" fill="white" fill-opacity="0.01"/>
<path d="M6.48818 4.70288L3.33301 9.72606L6.48818 14.7501L6.5432 14.7108L6.50282 4.7132L6.48818 4.70288Z" fill="#876929"/>
<path d="M10.012 13.8472L6.48818 14.7501V4.70288L10.012 5.60557V13.8472Z" fill="#D9A741"/>
<path d="M16.6704 5.96722L14.9718 6.24811L11.0723 2.22266L9.13372 3.07152L9.38945 3.54843L8.01741 4.09687V16.7803L10.0119 17.7782L10.0451 17.7522L10.0144 4.71413L14.2422 11.1212L16.6704 5.96722Z" fill="#876929"/>
<path d="M11.0723 2.22266L16.2659 4.81933L14.2122 8.54576L11.0723 2.22266Z" fill="#D9A741"/>
<path d="M16.6702 5.96722L16.6715 14.4459L10.0119 17.7782L10.0111 3.30031L14.2122 10.9226L16.6702 5.96722Z" fill="#D9A741"/>
</g>
<defs>
<clipPath id="clip0_3664_144101">
<rect width="20" height="20" fill="white"/>
</clipPath>
</defs>
</svg>
