<svg width="121" height="120" viewBox="0 0 121 120" fill="none" xmlns="http://www.w3.org/2000/svg">
<rect width="120" height="120" transform="translate(0.5)" fill="white"/>
<g clip-path="url(#clip0_1383_242338)">
<g clip-path="url(#clip1_1383_242338)">
<path d="M60.5 71.0917C84.8005 71.0917 104.5 66.8145 104.5 61.5382C104.5 56.2619 84.8005 51.9846 60.5 51.9846C36.1995 51.9846 16.5 56.2619 16.5 61.5382C16.5 66.8145 36.1995 71.0917 60.5 71.0917Z" fill="#F5F5F5"/>
<path d="M92.125 35.2898L78.1743 19.5919C77.5046 18.5219 76.527 17.875 75.4971 17.875H45.5029C44.473 17.875 43.4954 18.5219 42.8257 19.5905L28.875 35.2911V47.9005H92.125V35.2898Z" stroke="#D9D9D9" stroke-width="1.375"/>
<path d="M73.7179 39.6175C73.7179 37.427 75.0846 35.6187 76.78 35.6173H92.125V60.3706C92.125 63.268 90.31 65.6428 88.0687 65.6428H32.9312C30.69 65.6428 28.875 63.2666 28.875 60.3706V35.6173H44.22C45.9154 35.6173 47.2821 37.4229 47.2821 39.6134V39.6434C47.2821 41.8339 48.664 43.6027 50.358 43.6027H70.642C72.336 43.6027 73.7179 41.8176 73.7179 39.6271V39.6175Z" fill="#FAFAFA" stroke="#D9D9D9" stroke-width="1.375"/>
</g>
<path d="M42.9279 88.5682V98.75H41.7347L36.1864 90.7557H36.087V98.75H34.854V88.5682H36.0472L41.6154 96.5824H41.7148V88.5682H42.9279ZM48.3382 98.9091C47.6489 98.9091 47.044 98.745 46.5236 98.4169C46.0066 98.0888 45.6022 97.6297 45.3105 97.0398C45.0222 96.4498 44.878 95.7604 44.878 94.9716C44.878 94.1761 45.0222 93.4818 45.3105 92.8885C45.6022 92.2952 46.0066 91.8345 46.5236 91.5064C47.044 91.1783 47.6489 91.0142 48.3382 91.0142C49.0276 91.0142 49.6309 91.1783 50.1479 91.5064C50.6683 91.8345 51.0726 92.2952 51.361 92.8885C51.6526 93.4818 51.7985 94.1761 51.7985 94.9716C51.7985 95.7604 51.6526 96.4498 51.361 97.0398C51.0726 97.6297 50.6683 98.0888 50.1479 98.4169C49.6309 98.745 49.0276 98.9091 48.3382 98.9091ZM48.3382 97.8551C48.8619 97.8551 49.2928 97.7209 49.6309 97.4524C49.9689 97.1839 50.2192 96.831 50.3816 96.3935C50.544 95.956 50.6252 95.482 50.6252 94.9716C50.6252 94.4612 50.544 93.9856 50.3816 93.5447C50.2192 93.1039 49.9689 92.7476 49.6309 92.4759C49.2928 92.2041 48.8619 92.0682 48.3382 92.0682C47.8146 92.0682 47.3837 92.2041 47.0456 92.4759C46.7076 92.7476 46.4573 93.1039 46.2949 93.5447C46.1325 93.9856 46.0513 94.4612 46.0513 94.9716C46.0513 95.482 46.1325 95.956 46.2949 96.3935C46.4573 96.831 46.7076 97.1839 47.0456 97.4524C47.3837 97.7209 47.8146 97.8551 48.3382 97.8551ZM60.8281 98.75H57.6861V88.5682H60.9673C61.955 88.5682 62.8002 88.772 63.5028 89.1797C64.2055 89.584 64.7441 90.1657 65.1186 90.9247C65.4931 91.6804 65.6804 92.5852 65.6804 93.6392C65.6804 94.6998 65.4915 95.6129 65.1136 96.3786C64.7358 97.1409 64.1856 97.7275 63.4631 98.1385C62.7405 98.5462 61.8622 98.75 60.8281 98.75ZM58.919 97.6562H60.7486C61.5904 97.6562 62.2881 97.4938 62.8416 97.169C63.3951 96.8442 63.8078 96.3819 64.0795 95.782C64.3513 95.1821 64.4872 94.4678 64.4872 93.6392C64.4872 92.8172 64.353 92.1096 64.0845 91.5163C63.8161 90.9197 63.415 90.4624 62.8814 90.1442C62.3478 89.8227 61.6832 89.6619 60.8878 89.6619H58.919V97.6562ZM69.8366 98.929C69.3527 98.929 68.9136 98.8378 68.5192 98.6555C68.1248 98.4699 67.8116 98.2031 67.5795 97.8551C67.3475 97.5038 67.2315 97.0795 67.2315 96.5824C67.2315 96.1449 67.3177 95.7902 67.4901 95.5185C67.6624 95.2434 67.8928 95.0279 68.1811 94.8722C68.4695 94.7164 68.7876 94.6004 69.1357 94.5241C69.487 94.4446 69.84 94.3816 70.1946 94.3352C70.6586 94.2756 71.0348 94.2308 71.3232 94.201C71.6148 94.1679 71.8269 94.1132 71.9595 94.0369C72.0954 93.9607 72.1634 93.8281 72.1634 93.6392V93.5994C72.1634 93.1089 72.0291 92.7277 71.7607 92.456C71.4955 92.1842 71.0928 92.0483 70.5526 92.0483C69.9924 92.0483 69.5533 92.1709 69.2351 92.4162C68.9169 92.6615 68.6932 92.9233 68.5639 93.2017L67.4503 92.804C67.6491 92.34 67.9143 91.9787 68.2457 91.7202C68.5805 91.4583 68.9451 91.276 69.3395 91.1733C69.7372 91.0672 70.1283 91.0142 70.5128 91.0142C70.758 91.0142 71.0398 91.044 71.358 91.1037C71.6795 91.16 71.9893 91.2777 72.2876 91.4567C72.5893 91.6357 72.8395 91.9058 73.0384 92.267C73.2372 92.6283 73.3366 93.1122 73.3366 93.7188V98.75H72.1634V97.7159H72.1037C72.0241 97.8816 71.8916 98.0589 71.706 98.2479C71.5204 98.4368 71.2734 98.5975 70.9652 98.7301C70.657 98.8627 70.2808 98.929 69.8366 98.929ZM70.0156 97.875C70.4796 97.875 70.8707 97.7839 71.1889 97.6016C71.5104 97.4193 71.7524 97.1839 71.9148 96.8956C72.0805 96.6072 72.1634 96.304 72.1634 95.9858V94.9119C72.1136 94.9716 72.0043 95.0263 71.8352 95.076C71.6695 95.1224 71.4773 95.1638 71.2585 95.2003C71.0431 95.2334 70.8326 95.2633 70.6271 95.2898C70.425 95.313 70.2609 95.3329 70.1349 95.3494C69.83 95.3892 69.545 95.4538 69.2798 95.5433C69.018 95.6295 68.8059 95.7604 68.6435 95.9361C68.4844 96.1084 68.4048 96.3437 68.4048 96.642C68.4048 97.0497 68.5556 97.358 68.8572 97.5668C69.1622 97.7723 69.5483 97.875 70.0156 97.875ZM78.7992 91.1136V92.108H74.8418V91.1136H78.7992ZM75.9952 89.2841H77.1685V96.5625C77.1685 96.8939 77.2166 97.1425 77.3127 97.3082C77.4121 97.4706 77.5381 97.58 77.6905 97.6364C77.8463 97.6894 78.0104 97.7159 78.1827 97.7159C78.312 97.7159 78.418 97.7093 78.5009 97.696C78.5837 97.6795 78.65 97.6662 78.6998 97.6562L78.9384 98.7102C78.8588 98.7401 78.7478 98.7699 78.6053 98.7997C78.4628 98.8329 78.2821 98.8494 78.0634 98.8494C77.7319 98.8494 77.4071 98.7782 77.089 98.6357C76.7741 98.4931 76.5123 98.276 76.3034 97.9844C76.098 97.6927 75.9952 97.3248 75.9952 96.8807V89.2841ZM82.8113 98.929C82.3274 98.929 81.8882 98.8378 81.4938 98.6555C81.0994 98.4699 80.7862 98.2031 80.5542 97.8551C80.3221 97.5038 80.2061 97.0795 80.2061 96.5824C80.2061 96.1449 80.2923 95.7902 80.4647 95.5185C80.637 95.2434 80.8674 95.0279 81.1557 94.8722C81.4441 94.7164 81.7623 94.6004 82.1103 94.5241C82.4616 94.4446 82.8146 94.3816 83.1692 94.3352C83.6332 94.2756 84.0094 94.2308 84.2978 94.201C84.5894 94.1679 84.8016 94.1132 84.9341 94.0369C85.07 93.9607 85.138 93.8281 85.138 93.6392V93.5994C85.138 93.1089 85.0037 92.7277 84.7353 92.456C84.4701 92.1842 84.0674 92.0483 83.5272 92.0483C82.967 92.0483 82.5279 92.1709 82.2097 92.4162C81.8915 92.6615 81.6678 92.9233 81.5385 93.2017L80.4249 92.804C80.6238 92.34 80.8889 91.9787 81.2203 91.7202C81.5551 91.4583 81.9197 91.276 82.3141 91.1733C82.7118 91.0672 83.1029 91.0142 83.4874 91.0142C83.7327 91.0142 84.0144 91.044 84.3326 91.1037C84.6541 91.16 84.964 91.2777 85.2623 91.4567C85.5639 91.6357 85.8141 91.9058 86.013 92.267C86.2118 92.6283 86.3113 93.1122 86.3113 93.7188V98.75H85.138V97.7159H85.0783C84.9988 97.8816 84.8662 98.0589 84.6806 98.2479C84.495 98.4368 84.248 98.5975 83.9398 98.7301C83.6316 98.8627 83.2554 98.929 82.8113 98.929ZM82.9902 97.875C83.4542 97.875 83.8453 97.7839 84.1635 97.6016C84.485 97.4193 84.727 97.1839 84.8894 96.8956C85.0551 96.6072 85.138 96.304 85.138 95.9858V94.9119C85.0882 94.9716 84.9789 95.0263 84.8098 95.076C84.6441 95.1224 84.4519 95.1638 84.2331 95.2003C84.0177 95.2334 83.8072 95.2633 83.6017 95.2898C83.3996 95.313 83.2355 95.3329 83.1096 95.3494C82.8046 95.3892 82.5196 95.4538 82.2544 95.5433C81.9926 95.6295 81.7805 95.7604 81.6181 95.9361C81.459 96.1084 81.3794 96.3437 81.3794 96.642C81.3794 97.0497 81.5302 97.358 81.8319 97.5668C82.1368 97.7723 82.5229 97.875 82.9902 97.875Z" fill="black" fill-opacity="0.25"/>
</g>
<defs>
<clipPath id="clip0_1383_242338">
<rect width="88" height="88.75" fill="white" transform="translate(16.5 16)"/>
</clipPath>
<clipPath id="clip1_1383_242338">
<rect width="88" height="55" fill="white" transform="translate(16.5 16)"/>
</clipPath>
</defs>
</svg>
