<svg width="16" height="17" viewBox="0 0 16 17" fill="none" xmlns="http://www.w3.org/2000/svg">
<g clip-path="url(#clip0_5829_45756)">
<rect width="16" height="16" transform="matrix(4.37114e-08 -1 -1 -4.37114e-08 16 16.6484)" fill="white" fill-opacity="0.01"/>
<path d="M3.21081 1.98828L3.21081 14.8454C3.21081 14.924 3.14653 14.9883 3.06796 14.9883L1.99653 14.9883C1.91796 14.9883 1.85367 14.924 1.85367 14.8454L1.85367 1.98828C1.85367 1.90971 1.91796 1.84542 1.99653 1.84542L3.06796 1.84542C3.14653 1.84542 3.21081 1.90971 3.21081 1.98828ZM11.3233 10.649L11.3233 9.32935L5.28224 9.32935C5.20367 9.32935 5.13938 9.26507 5.13938 9.18649L5.13938 8.11507C5.13938 8.03649 5.20367 7.97221 5.28224 7.97221L11.3233 7.97221L11.3233 6.64899C11.3233 6.52935 11.4608 6.46328 11.5537 6.53649L14.0858 8.53649C14.1029 8.54986 14.1167 8.56693 14.1262 8.58642C14.1357 8.60592 14.1406 8.62731 14.1406 8.64899C14.1406 8.67068 14.1357 8.69207 14.1262 8.71157C14.1167 8.73106 14.1029 8.74813 14.0858 8.76149L11.5555 10.7615C11.4608 10.8347 11.3233 10.7686 11.3233 10.649Z" fill="#555555"/>
</g>
<defs>
<clipPath id="clip0_5829_45756">
<rect width="16" height="16" fill="white" transform="matrix(4.37114e-08 -1 -1 -4.37114e-08 16 16.6484)"/>
</clipPath>
</defs>
</svg>
