<svg width="20" height="20" viewBox="0 0 20 20" fill="none" xmlns="http://www.w3.org/2000/svg">
<g clip-path="url(#clip0_3664_144112)">
<rect width="20" height="20" fill="white" fill-opacity="0.01"/>
<path d="M17.6269 8.47716H17.0004V8.44488H10.0004V11.556H14.396C13.7548 13.367 12.0316 14.6671 10.0004 14.6671C7.42327 14.6671 5.33377 12.5776 5.33377 10.0004C5.33377 7.42327 7.42327 5.33377 10.0004 5.33377C11.19 5.33377 12.2723 5.78255 13.0964 6.5156L15.2963 4.31566C13.9072 3.02105 12.0491 2.22266 10.0004 2.22266C5.70516 2.22266 2.22266 5.70516 2.22266 10.0004C2.22266 14.2957 5.70516 17.7782 10.0004 17.7782C14.2957 17.7782 17.7782 14.2957 17.7782 10.0004C17.7782 9.47893 17.7245 8.96988 17.6269 8.47716Z" fill="#FFC107"/>
<path d="M3.11949 6.38027L5.67488 8.25432C6.36633 6.54243 8.04082 5.33377 10.0004 5.33377C11.19 5.33377 12.2723 5.78255 13.0964 6.5156L15.2963 4.31566C13.9072 3.02105 12.0491 2.22266 10.0004 2.22266C7.01299 2.22266 4.42227 3.90927 3.11949 6.38027Z" fill="#FF3D00"/>
<path d="M10.0004 17.7782C12.0094 17.7782 13.8348 17.0094 15.215 15.7591L12.8078 13.7221C12.0269 14.3136 11.0563 14.6671 10.0004 14.6671C7.97743 14.6671 6.25964 13.3771 5.61253 11.577L3.0762 13.5311C4.36342 16.05 6.9776 17.7782 10.0004 17.7782Z" fill="#4CAF50"/>
<path d="M17.6269 8.47716H17.0004V8.44488H10.0004V11.556H14.396C14.088 12.4259 13.5284 13.1761 12.8067 13.7225C12.807 13.7221 12.8074 13.7225 12.8078 13.7221L15.215 15.7591C15.0446 15.9139 17.7782 13.8893 17.7782 10.0004C17.7782 9.47893 17.7245 8.96988 17.6269 8.47716Z" fill="#1976D2"/>
</g>
<defs>
<clipPath id="clip0_3664_144112">
<rect width="20" height="20" fill="white"/>
</clipPath>
</defs>
</svg>
