<svg width="598" height="383" viewBox="0 0 598 383" fill="none" xmlns="http://www.w3.org/2000/svg">
<path opacity="0.5" fill-rule="evenodd" clip-rule="evenodd" d="M597 84C597 248.581 463.581 382 299 382C134.419 382 1 248.581 1 84C1 -80.5809 134.419 -214 299 -214C463.581 -214 597 -80.5809 597 84ZM598 84C598 249.133 464.133 383 299 383C133.867 383 0 249.133 0 84C0 -81.1331 133.867 -215 299 -215C464.133 -215 598 -81.1331 598 84ZM546.879 83.9999C546.879 220.899 435.899 331.879 299 331.879C162.1 331.879 51.1213 220.899 51.1213 83.9999C51.1213 -52.8997 162.1 -163.879 299 -163.879C435.899 -163.879 546.879 -52.8997 546.879 83.9999ZM547.879 83.9999C547.879 221.452 436.452 332.879 299 332.879C161.548 332.879 50.1213 221.452 50.1213 83.9999C50.1213 -53.452 161.548 -164.879 299 -164.879C436.452 -164.879 547.879 -53.452 547.879 83.9999ZM299 282.621C408.696 282.621 497.621 193.696 497.621 84.0001C497.621 -25.6955 408.696 -114.621 299 -114.621C189.305 -114.621 100.379 -25.6955 100.379 84.0001C100.379 193.696 189.305 282.621 299 282.621ZM299 283.621C409.248 283.621 498.621 194.248 498.621 84.0001C498.621 -26.2478 409.248 -115.621 299 -115.621C188.752 -115.621 99.3787 -26.2478 99.3787 84.0001C99.3787 194.248 188.752 283.621 299 283.621ZM448.364 83.9999C448.364 166.491 381.491 233.364 299 233.364C216.508 233.364 149.636 166.491 149.636 83.9999C149.636 1.50836 216.508 -65.3643 299 -65.3643C381.491 -65.3643 448.364 1.50836 448.364 83.9999ZM449.364 83.9999C449.364 167.044 382.044 234.364 299 234.364C215.956 234.364 148.636 167.044 148.636 83.9999C148.636 0.956055 215.956 -66.3643 299 -66.3643C382.044 -66.3643 449.364 0.956055 449.364 83.9999ZM299 182.379C353.333 182.379 397.379 138.333 397.379 84C397.379 29.667 353.333 -14.3786 299 -14.3786C244.667 -14.3786 200.621 29.667 200.621 84C200.621 138.333 244.667 182.379 299 182.379ZM299 183.379C353.885 183.379 398.379 138.885 398.379 84C398.379 29.1147 353.885 -15.3786 299 -15.3786C244.115 -15.3786 199.621 29.1147 199.621 84C199.621 138.885 244.115 183.379 299 183.379ZM353.306 84C353.306 113.993 328.992 138.306 299 138.306C269.007 138.306 244.694 113.993 244.694 84C244.694 54.0075 269.007 29.6937 299 29.6937C328.992 29.6937 353.306 54.0075 353.306 84ZM354.306 84C354.306 114.545 329.545 139.306 299 139.306C268.455 139.306 243.694 114.545 243.694 84C243.694 53.4552 268.455 28.6937 299 28.6937C329.545 28.6937 354.306 53.4552 354.306 84Z" fill="url(#paint0_radial_1176_163038)"/>
<defs>
<radialGradient id="paint0_radial_1176_163038" cx="0" cy="0" r="1" gradientUnits="userSpaceOnUse" gradientTransform="translate(298.659 84) rotate(90) scale(271.779 271.166)">
<stop stop-color="#C1E1C6"/>
<stop offset="1" stop-color="#C1E1C6" stop-opacity="0"/>
</radialGradient>
</defs>
</svg>
