<svg width="20" height="20" viewBox="0 0 20 20" fill="none" xmlns="http://www.w3.org/2000/svg">
<path d="M15.8183 13.3572C15.418 14.0485 14.763 14.5579 13.9989 14.7763C14.1081 14.3942 14.1626 14.0121 14.1626 13.6119C14.1626 11.6652 12.8163 10.0277 11.0151 9.57288C11.3972 9.20901 11.852 8.93611 12.3615 8.80875C13.1438 8.59043 13.9989 8.69959 14.6903 9.11804C16.1639 9.99134 16.6734 11.8835 15.8183 13.3572ZM10.0327 16.723C9.23217 16.723 8.46803 16.3955 7.90403 15.8497C8.2861 15.7587 8.64997 15.6132 8.97746 15.413C10.6513 14.4306 11.3972 12.4475 10.8696 10.6463C12.1613 11.0102 13.1074 12.211 13.1074 13.6119C13.1074 15.3403 11.7247 16.723 10.0327 16.723ZM4.24711 13.3572C3.84685 12.6658 3.73769 11.8289 3.93782 11.0648C4.21072 11.3377 4.52002 11.5924 4.8475 11.7925C5.46608 12.1564 6.17564 12.3565 6.90338 12.3565C8.03139 12.3565 9.10481 11.9017 9.88714 11.083C10.2146 12.3929 9.65062 13.812 8.44984 14.5034C7.97681 14.7763 7.44919 14.9218 6.92157 14.9218C5.81176 14.9036 4.79292 14.3214 4.24711 13.3572ZM4.24711 6.64371C4.64737 5.95235 5.30234 5.44293 6.06647 5.22461C5.95731 5.60667 5.90273 5.98874 5.90273 6.389C5.90273 8.33572 7.24906 9.97314 9.05023 10.428C8.08597 11.3559 6.59409 11.5924 5.37512 10.8828C4.66556 10.4644 4.15614 9.8094 3.93782 9.00888C3.7195 8.20836 3.82866 7.35326 4.24711 6.64371ZM10.0327 3.27788C10.8332 3.27788 11.5973 3.60537 12.1613 4.15118C11.7793 4.24215 11.4154 4.3877 11.0879 4.58783C10.1237 5.15183 9.45049 6.04332 9.15939 7.11674C8.95926 7.84449 8.97746 8.62682 9.17759 9.35456C7.88584 8.99069 6.93977 7.78991 6.93977 6.389C6.95796 4.6788 8.34068 3.27788 10.0327 3.27788ZM15.8183 6.64371C16.2185 7.35326 16.3277 8.17197 16.1276 8.93611C15.8546 8.64501 15.5454 8.40849 15.2179 8.20836C14.2536 7.64436 13.1438 7.49881 12.0704 7.78991C11.3426 7.99004 10.6695 8.3903 10.16 8.93611C10.0327 8.42668 10.0327 7.89907 10.1782 7.38965C10.3966 6.58913 10.906 5.91596 11.6155 5.5157C12.3251 5.09725 13.162 4.98809 13.9443 5.20641C14.7448 5.42473 15.3998 5.93415 15.8183 6.64371ZM16.7461 6.11609C16.2003 5.15183 15.3088 4.46048 14.2354 4.16938C13.9807 4.0966 13.726 4.06021 13.4713 4.04202C12.7071 2.91401 11.4154 2.22266 10.0509 2.22266C8.63178 2.22266 7.37642 2.9504 6.63048 4.04202C5.26595 4.15118 4.02879 4.91531 3.33743 6.11609C2.79162 7.08036 2.64607 8.19017 2.91898 9.26359C2.99175 9.5183 3.08272 9.75482 3.19188 9.99134C2.59149 11.2285 2.64607 12.684 3.33743 13.8848C4.04698 15.1219 5.30234 15.8497 6.61228 15.9588C7.37642 17.0869 8.66816 17.7782 10.0327 17.7782C11.4518 17.7782 12.7072 17.0505 13.4531 15.9588C14.8176 15.8497 16.0548 15.0856 16.7461 13.8848C17.4557 12.6476 17.4557 11.1921 16.8917 9.99134C17.4739 8.77237 17.4193 7.29868 16.7461 6.11609Z" fill="#0092FF"/>
</svg>
