<svg width="361" height="48" viewBox="0 0 361 48" fill="none" xmlns="http://www.w3.org/2000/svg">
<path d="M41.9569 3.92728C41.9569 3.10129 41.5183 2.53848 40.7247 2.34548C37.8532 1.61872 34.9402 1.06704 32.0018 0.693493C29.8855 0.441106 27.7557 0.230558 25.6273 0.0942425C23.9753 -0.0110305 22.3153 0.0159625 20.6592 0.00381546C18.0573 -0.0241905 15.456 0.101999 12.869 0.381721C11.464 0.54368 10.059 0.702941 8.66205 0.916183C6.29069 1.27924 3.94093 1.75837 1.61141 2.33603C0.758422 2.54793 0.335977 3.0689 0.335977 3.95293V14.6747H0.327879C0.327879 17.9827 0.310333 21.2881 0.338676 24.5974C0.339934 25.7798 0.411593 26.961 0.553273 28.1349C0.889339 30.7384 1.98932 33.022 3.6683 35.0263C5.49169 37.1938 7.57287 39.0915 9.77553 40.8514C12.7158 43.1861 15.8679 45.2407 19.1908 46.9883C20.5081 47.6848 21.8145 47.6942 23.117 46.9695C24.1805 46.3783 25.2535 45.802 26.2941 45.1703C30.3255 42.7207 34.0519 39.8797 37.3262 36.4677C38.5814 35.1612 39.6976 33.7549 40.5141 32.1245C41.5938 29.965 41.938 27.6409 41.9461 25.2669C41.9718 18.1541 41.9569 11.0401 41.9569 3.92728ZM7.56478 28.7072H5.21501V9.90085H7.56478V28.7072ZM12.5761 24.7472H10.225V13.8609H12.5761V24.7472ZM17.5253 26.7272H15.1742V11.8809H17.5253V26.7272ZM22.4732 31.6764H20.1234V6.93164H22.4732V31.6764Z" fill="#268334"/>
<path d="M128.962 27.7172H115.977C116.028 27.9223 116.064 28.1045 116.112 28.2813C116.696 30.2154 118.502 31.6636 120.516 31.8579C122.769 32.0766 124.593 31.2331 126.169 29.6364L128.271 32.082C127.629 32.9116 126.808 33.5845 125.868 34.0498C122.508 35.7463 119.169 35.7909 115.986 33.6543C113.771 32.1697 112.571 29.9968 112.328 27.3393C112.059 24.4483 112.963 21.9528 115.097 19.9647C116.947 18.2385 119.174 17.5205 121.698 17.731C123.787 17.9065 125.588 18.7055 127.021 20.2522C128.319 21.6518 128.972 23.3348 129.118 25.2257C129.173 26.0595 129.12 26.8968 128.962 27.7172ZM125.408 24.6872C125.041 22.6627 123.483 20.95 121.107 20.8595C118.32 20.7543 116.558 22.5196 116.025 24.6872H125.408Z" fill="black"/>
<path d="M103.204 12.7168V23.9636L103.261 23.9906C103.443 23.7881 103.626 23.5857 103.801 23.3832C105.414 21.5333 107.028 19.6842 108.643 17.8361C108.725 17.7413 108.839 17.681 108.963 17.6674C110.41 17.6552 111.857 17.6579 113.304 17.6579C113.337 17.6579 113.371 17.6647 113.463 17.6741C111.063 20.4288 108.69 23.1511 106.301 25.8949L114.179 35.0173C114.061 35.0254 113.988 35.0362 113.91 35.0362C112.514 35.0362 111.12 35.0362 109.726 35.0281C109.585 35.0201 109.452 34.9594 109.354 34.858C107.375 32.5681 105.395 30.2737 103.416 27.9748C103.366 27.9154 103.311 27.8614 103.213 27.7575V35.0119H99.622C99.622 34.9296 99.6058 34.8391 99.6058 34.742C99.6058 28.0197 99.6058 21.2971 99.6058 14.5739C99.5971 14.4942 99.6166 14.4139 99.661 14.3471C99.7054 14.2802 99.7718 14.2311 99.8487 14.2082C100.889 13.7453 101.923 13.2634 102.953 12.7991C103.02 12.7816 103.097 12.7546 103.204 12.7168Z" fill="black"/>
<path d="M81.5698 26.5491C81.5105 27.8717 81.2918 29.1566 80.729 30.3551C79.6682 32.6131 77.8704 34.0573 75.495 34.6929C72.2369 35.5662 69.3176 34.859 66.8639 32.493C65.7923 31.4605 65.1633 30.1716 64.8475 28.7274C64.4656 27.0394 64.4938 25.2844 64.9298 23.6095C65.5291 21.3151 66.9543 19.6509 69.0409 18.6414C72.3152 17.0609 75.4896 17.3295 78.44 19.5065C80.2107 20.8144 81.1299 22.635 81.4254 24.7864C81.5051 25.3695 81.5226 25.962 81.5698 26.5491ZM78.0837 26.3439C78.0513 26.0065 78.0445 25.6691 77.9838 25.3317C77.6275 23.4017 76.5585 22.0412 74.6771 21.4176C72.4799 20.6929 70.1733 21.4554 68.9383 23.2761C68.0665 24.5637 67.8816 26.0052 68.1596 27.5019C68.5038 29.3591 69.5578 30.6777 71.3529 31.3039C73.5663 32.0773 75.9013 31.3174 77.1686 29.4792C77.8191 28.5398 78.0594 27.4736 78.0837 26.3439Z" fill="black"/>
<path d="M49.9612 35.016V12.2188H53.5121V31.4286H64.1097V35.016H49.9612Z" fill="black"/>
<path d="M97.6804 32.3795C96.7235 33.39 95.5314 34.1481 94.2105 34.5862C90.812 35.7172 87.0275 34.6888 84.7331 31.9962C83.7735 30.8706 83.2674 29.5384 83.0433 28.0943C82.7829 26.4113 82.8449 24.7431 83.3943 23.1181C84.2567 20.5672 86.0639 18.9341 88.5716 18.1243C91.9457 17.0446 94.9825 17.7275 97.5738 20.1947C97.6073 20.2294 97.6388 20.2659 97.6683 20.304C97.3889 20.5672 97.1203 20.8237 96.8491 21.0774C96.3861 21.5133 95.9178 21.9425 95.4602 22.3839C95.4408 22.4111 95.4157 22.4338 95.3866 22.4504C95.3575 22.467 95.3253 22.4771 95.2919 22.48C95.2586 22.483 95.225 22.4787 95.1935 22.4674C95.162 22.4562 95.1333 22.4383 95.1093 22.4149C94.1322 21.7684 93.0848 21.3095 91.9039 21.1665C90.7296 21.0142 89.5402 21.2959 88.559 21.9587C87.5778 22.6215 86.8724 23.6198 86.5754 24.766C86.1503 26.4005 86.3055 27.9904 87.2502 29.4278C88.4973 31.3321 90.7999 32.0704 93.0862 31.2917C93.7867 31.0528 94.4359 30.66 95.1026 30.3239C95.2376 30.2578 95.3145 30.2146 95.4414 30.332C96.1702 31.015 96.9138 31.6844 97.6804 32.3795Z" fill="black"/>
<path d="M134.632 35.0344H130.959C130.909 35.0344 130.857 35.0344 130.79 35.0249V18.1298H134.434V19.4188C136.257 17.7911 138.411 17.5751 140.677 17.6777V21.5917C140.128 21.5431 139.571 21.4568 139.013 21.4568C136.753 21.4406 135.099 22.8577 134.74 25.1009C134.674 25.5219 134.64 25.9474 134.639 26.3736C134.63 29.1526 134.639 31.9302 134.639 34.7091L134.632 35.0344Z" fill="black"/>
<path d="M151.066 35V17.9368H156.832C158.17 17.9368 159.265 18.1784 160.114 18.6616C160.97 19.1393 161.603 19.7864 162.014 20.6029C162.425 21.4194 162.631 22.3303 162.631 23.3357C162.631 24.341 162.425 25.2547 162.014 26.0768C161.609 26.8988 160.981 27.5543 160.131 28.0431C159.281 28.5263 158.193 28.7679 156.865 28.7679H152.733V26.935H156.798C157.715 26.935 158.451 26.7767 159.006 26.46C159.562 26.1434 159.964 25.7158 160.214 25.177C160.47 24.6326 160.598 24.0189 160.598 23.3357C160.598 22.6525 160.47 22.0415 160.214 21.5027C159.964 20.9639 159.559 20.5418 158.998 20.2363C158.437 19.9252 157.693 19.7697 156.765 19.7697H153.133V35H151.066Z" fill="black"/>
<path d="M169.458 35.2999C168.647 35.2999 167.911 35.1472 167.251 34.8417C166.59 34.5306 166.065 34.0835 165.676 33.5003C165.287 32.9115 165.093 32.2006 165.093 31.3674C165.093 30.6342 165.237 30.0399 165.526 29.5844C165.815 29.1234 166.201 28.7624 166.684 28.5013C167.167 28.2402 167.7 28.0458 168.284 27.9181C168.872 27.7848 169.464 27.6792 170.058 27.6015C170.836 27.5015 171.466 27.4265 171.95 27.3765C172.438 27.321 172.794 27.2293 173.016 27.1016C173.244 26.9738 173.358 26.7517 173.358 26.4351V26.3684C173.358 25.5463 173.133 24.9076 172.683 24.4521C172.238 23.9967 171.564 23.7689 170.658 23.7689C169.719 23.7689 168.983 23.9744 168.45 24.3855C167.917 24.7965 167.542 25.2353 167.325 25.7019L165.459 25.0353C165.792 24.2577 166.237 23.6523 166.792 23.219C167.353 22.7802 167.964 22.4747 168.625 22.3025C169.292 22.1248 169.947 22.0359 170.592 22.0359C171.003 22.0359 171.475 22.0859 172.008 22.1859C172.547 22.2803 173.066 22.4775 173.566 22.7775C174.071 23.0774 174.491 23.5301 174.824 24.1355C175.157 24.7409 175.324 25.5519 175.324 26.5684V35H173.358V33.267H173.258C173.124 33.5447 172.902 33.8419 172.591 34.1585C172.28 34.4751 171.866 34.7445 171.35 34.9667C170.833 35.1889 170.203 35.2999 169.458 35.2999ZM169.758 33.5336C170.536 33.5336 171.191 33.3809 171.725 33.0754C172.263 32.7699 172.669 32.3755 172.941 31.8923C173.219 31.4091 173.358 30.9008 173.358 30.3676V28.568C173.274 28.6679 173.091 28.7596 172.808 28.8429C172.53 28.9207 172.208 28.9901 171.841 29.0512C171.48 29.1067 171.128 29.1567 170.783 29.2012C170.444 29.24 170.169 29.2734 169.958 29.3011C169.447 29.3678 168.97 29.4761 168.525 29.6261C168.086 29.7705 167.731 29.9899 167.459 30.2843C167.192 30.5731 167.059 30.9675 167.059 31.4674C167.059 32.1506 167.312 32.6671 167.817 33.0171C168.328 33.3614 168.975 33.5336 169.758 33.5336Z" fill="black"/>
<path d="M187.978 25.0687L186.211 25.5686C186.1 25.2742 185.936 24.9881 185.72 24.7104C185.509 24.4271 185.22 24.1938 184.853 24.0105C184.487 23.8272 184.017 23.7356 183.445 23.7356C182.662 23.7356 182.009 23.9161 181.487 24.2772C180.971 24.6326 180.712 25.0853 180.712 25.6352C180.712 26.124 180.89 26.51 181.246 26.7933C181.601 27.0766 182.157 27.3127 182.912 27.5015L184.812 27.9681C185.956 28.2458 186.808 28.6707 187.369 29.2428C187.93 29.8094 188.211 30.5398 188.211 31.434C188.211 32.1672 188 32.8227 187.578 33.4003C187.161 33.978 186.578 34.4334 185.828 34.7667C185.078 35.1 184.206 35.2666 183.212 35.2666C181.907 35.2666 180.826 34.9833 179.971 34.4168C179.115 33.8502 178.574 33.0226 178.346 31.9339L180.212 31.4674C180.39 32.1561 180.726 32.6727 181.221 33.0171C181.721 33.3614 182.373 33.5336 183.179 33.5336C184.095 33.5336 184.823 33.3392 185.361 32.9504C185.906 32.556 186.178 32.0839 186.178 31.534C186.178 31.0897 186.022 30.7175 185.711 30.4176C185.4 30.1121 184.923 29.8844 184.278 29.7344L182.145 29.2345C180.973 28.9568 180.113 28.5263 179.563 27.9431C179.018 27.3543 178.746 26.6183 178.746 25.7352C178.746 25.0131 178.949 24.3744 179.354 23.8189C179.765 23.2635 180.324 22.8274 181.029 22.5108C181.74 22.1942 182.545 22.0359 183.445 22.0359C184.712 22.0359 185.706 22.3137 186.428 22.8691C187.156 23.4245 187.672 24.1577 187.978 25.0687Z" fill="black"/>
<path d="M200.236 25.0687L198.469 25.5686C198.358 25.2742 198.194 24.9881 197.978 24.7104C197.767 24.4271 197.478 24.1938 197.111 24.0105C196.745 23.8272 196.275 23.7356 195.703 23.7356C194.92 23.7356 194.267 23.9161 193.745 24.2772C193.229 24.6326 192.97 25.0853 192.97 25.6352C192.97 26.124 193.148 26.51 193.504 26.7933C193.859 27.0766 194.415 27.3127 195.17 27.5015L197.07 27.9681C198.214 28.2458 199.066 28.6707 199.627 29.2428C200.188 29.8094 200.469 30.5398 200.469 31.434C200.469 32.1672 200.258 32.8227 199.836 33.4003C199.419 33.978 198.836 34.4334 198.086 34.7667C197.336 35.1 196.464 35.2666 195.47 35.2666C194.165 35.2666 193.084 34.9833 192.229 34.4168C191.373 33.8502 190.832 33.0226 190.604 31.9339L192.47 31.4674C192.648 32.1561 192.984 32.6727 193.479 33.0171C193.978 33.3614 194.631 33.5336 195.437 33.5336C196.353 33.5336 197.081 33.3392 197.619 32.9504C198.164 32.556 198.436 32.0839 198.436 31.534C198.436 31.0897 198.28 30.7175 197.969 30.4176C197.658 30.1121 197.181 29.8844 196.536 29.7344L194.403 29.2345C193.231 28.9568 192.37 28.5263 191.821 27.9431C191.276 27.3543 191.004 26.6183 191.004 25.7352C191.004 25.0131 191.207 24.3744 191.612 23.8189C192.023 23.2635 192.582 22.8274 193.287 22.5108C193.998 22.1942 194.803 22.0359 195.703 22.0359C196.97 22.0359 197.964 22.3137 198.686 22.8691C199.413 23.4245 199.93 24.1577 200.236 25.0687Z" fill="black"/>
<path d="M206.328 35L202.429 22.2026H204.495L207.261 32.0006H207.395L210.127 22.2026H212.227L214.926 31.9673H215.06L217.826 22.2026H219.892L215.993 35H214.06L211.26 25.1686H211.06L208.261 35H206.328Z" fill="black"/>
<path d="M227.255 35.2666C226.1 35.2666 225.086 34.9917 224.214 34.4418C223.348 33.8919 222.67 33.1226 222.181 32.1339C221.698 31.1452 221.456 29.9899 221.456 28.6679C221.456 27.3349 221.698 26.1712 222.181 25.177C222.67 24.1827 223.348 23.4107 224.214 22.8608C225.086 22.3109 226.1 22.0359 227.255 22.0359C228.41 22.0359 229.421 22.3109 230.288 22.8608C231.16 23.4107 231.838 24.1827 232.321 25.177C232.81 26.1712 233.054 27.3349 233.054 28.6679C233.054 29.9899 232.81 31.1452 232.321 32.1339C231.838 33.1226 231.16 33.8919 230.288 34.4418C229.421 34.9917 228.41 35.2666 227.255 35.2666ZM227.255 33.5003C228.133 33.5003 228.855 33.2753 229.421 32.8254C229.988 32.3755 230.407 31.784 230.679 31.0508C230.952 30.3176 231.088 29.5233 231.088 28.6679C231.088 27.8126 230.952 27.0155 230.679 26.2767C230.407 25.538 229.988 24.9409 229.421 24.4854C228.855 24.03 228.133 23.8022 227.255 23.8022C226.378 23.8022 225.655 24.03 225.089 24.4854C224.522 24.9409 224.103 25.538 223.831 26.2767C223.559 27.0155 223.423 27.8126 223.423 28.6679C223.423 29.5233 223.559 30.3176 223.831 31.0508C224.103 31.784 224.522 32.3755 225.089 32.8254C225.655 33.2753 226.378 33.5003 227.255 33.5003Z" fill="black"/>
<path d="M236.055 35V22.2026H237.955V24.1355H238.088C238.322 23.5023 238.744 22.9885 239.355 22.5942C239.966 22.1998 240.655 22.0026 241.421 22.0026C241.565 22.0026 241.746 22.0054 241.963 22.0109C242.179 22.0165 242.343 22.0248 242.454 22.0359V24.0355C242.388 24.0189 242.235 23.9939 241.996 23.9605C241.763 23.9217 241.515 23.9022 241.254 23.9022C240.632 23.9022 240.077 24.0328 239.588 24.2938C239.105 24.5493 238.722 24.9048 238.438 25.3603C238.161 25.8102 238.022 26.324 238.022 26.9016V35H236.055Z" fill="black"/>
<path d="M249.228 35.2666C248.161 35.2666 247.22 34.9972 246.403 34.4584C245.587 33.9141 244.948 33.1476 244.487 32.1589C244.026 31.1647 243.796 29.9899 243.796 28.6346C243.796 27.2904 244.026 26.124 244.487 25.1353C244.948 24.1466 245.59 23.3829 246.412 22.8441C247.234 22.3053 248.184 22.0359 249.261 22.0359C250.094 22.0359 250.753 22.1748 251.236 22.4525C251.725 22.7247 252.097 23.0357 252.352 23.3857C252.613 23.73 252.816 24.0133 252.96 24.2355H253.127V17.9368H255.093V35H253.194V33.0337H252.96C252.816 33.267 252.61 33.5614 252.344 33.9169C252.077 34.2668 251.697 34.5806 251.202 34.8584C250.708 35.1305 250.05 35.2666 249.228 35.2666ZM249.494 33.5003C250.283 33.5003 250.95 33.2948 251.494 32.8838C252.038 32.4672 252.452 31.8923 252.735 31.1591C253.019 30.4204 253.16 29.5678 253.16 28.6013C253.16 27.6459 253.021 26.81 252.744 26.0935C252.466 25.3714 252.055 24.8104 251.511 24.4105C250.966 24.005 250.294 23.8022 249.494 23.8022C248.661 23.8022 247.967 24.0161 247.412 24.4438C246.862 24.8659 246.448 25.4408 246.17 26.1684C245.898 26.8905 245.762 27.7015 245.762 28.6013C245.762 29.5122 245.901 30.3398 246.178 31.0841C246.462 31.8229 246.878 32.4116 247.428 32.8504C247.984 33.2837 248.672 33.5003 249.494 33.5003Z" fill="black"/>
<path d="M265.833 17.9368H268.299L274.098 32.1006H274.298L280.097 17.9368H282.563V35H280.63V22.0359H280.463L275.131 35H273.265L267.932 22.0359H267.766V35H265.833V17.9368Z" fill="black"/>
<path d="M290.205 35.2999C289.394 35.2999 288.658 35.1472 287.997 34.8417C287.336 34.5306 286.811 34.0835 286.422 33.5003C286.034 32.9115 285.839 32.2006 285.839 31.3674C285.839 30.6342 285.984 30.0399 286.272 29.5844C286.561 29.1234 286.947 28.7624 287.431 28.5013C287.914 28.2402 288.447 28.0458 289.03 27.9181C289.619 27.7848 290.211 27.6792 290.805 27.6015C291.582 27.5015 292.213 27.4265 292.696 27.3765C293.185 27.321 293.54 27.2293 293.763 27.1016C293.99 26.9738 294.104 26.7517 294.104 26.4351V26.3684C294.104 25.5463 293.879 24.9076 293.429 24.4521C292.985 23.9967 292.31 23.7689 291.405 23.7689C290.466 23.7689 289.73 23.9744 289.197 24.3855C288.664 24.7965 288.289 25.2353 288.072 25.7019L286.206 25.0353C286.539 24.2577 286.983 23.6523 287.539 23.219C288.1 22.7802 288.711 22.4747 289.372 22.3025C290.038 22.1248 290.694 22.0359 291.338 22.0359C291.749 22.0359 292.221 22.0859 292.754 22.1859C293.293 22.2803 293.813 22.4775 294.312 22.7775C294.818 23.0774 295.237 23.5301 295.571 24.1355C295.904 24.7409 296.07 25.5519 296.07 26.5684V35H294.104V33.267H294.004C293.871 33.5447 293.649 33.8419 293.338 34.1585C293.027 34.4751 292.613 34.7445 292.096 34.9667C291.58 35.1889 290.949 35.2999 290.205 35.2999ZM290.505 33.5336C291.283 33.5336 291.938 33.3809 292.471 33.0754C293.01 32.7699 293.415 32.3755 293.688 31.8923C293.965 31.4091 294.104 30.9008 294.104 30.3676V28.568C294.021 28.6679 293.838 28.7596 293.554 28.8429C293.277 28.9207 292.954 28.9901 292.588 29.0512C292.227 29.1067 291.874 29.1567 291.53 29.2012C291.191 29.24 290.916 29.2734 290.705 29.3011C290.194 29.3678 289.716 29.4761 289.272 29.6261C288.833 29.7705 288.478 29.9899 288.205 30.2843C287.939 30.5731 287.805 30.9675 287.805 31.4674C287.805 32.1506 288.058 32.6671 288.564 33.0171C289.075 33.3614 289.722 33.5336 290.505 33.5336Z" fill="black"/>
<path d="M301.626 27.3015V35H299.659V22.2026H301.559V24.2022H301.726C302.026 23.5523 302.481 23.0302 303.092 22.6358C303.703 22.2359 304.492 22.0359 305.458 22.0359C306.325 22.0359 307.083 22.2137 307.733 22.5692C308.383 22.9191 308.888 23.4523 309.249 24.1688C309.61 24.8798 309.791 25.7796 309.791 26.8683V35H307.824V27.0016C307.824 25.9963 307.563 25.2131 307.041 24.6521C306.519 24.0855 305.803 23.8022 304.892 23.8022C304.264 23.8022 303.703 23.9383 303.209 24.2105C302.72 24.4827 302.334 24.8798 302.051 25.4019C301.767 25.924 301.626 26.5572 301.626 27.3015Z" fill="black"/>
<path d="M317.15 35.2999C316.339 35.2999 315.603 35.1472 314.942 34.8417C314.281 34.5306 313.756 34.0835 313.367 33.5003C312.978 32.9115 312.784 32.2006 312.784 31.3674C312.784 30.6342 312.928 30.0399 313.217 29.5844C313.506 29.1234 313.892 28.7624 314.375 28.5013C314.858 28.2402 315.392 28.0458 315.975 27.9181C316.564 27.7848 317.155 27.6792 317.749 27.6015C318.527 27.5015 319.158 27.4265 319.641 27.3765C320.13 27.321 320.485 27.2293 320.707 27.1016C320.935 26.9738 321.049 26.7517 321.049 26.4351V26.3684C321.049 25.5463 320.824 24.9076 320.374 24.4521C319.93 23.9967 319.255 23.7689 318.349 23.7689C317.411 23.7689 316.675 23.9744 316.141 24.3855C315.608 24.7965 315.233 25.2353 315.017 25.7019L313.15 25.0353C313.484 24.2577 313.928 23.6523 314.483 23.219C315.044 22.7802 315.655 22.4747 316.316 22.3025C316.983 22.1248 317.638 22.0359 318.283 22.0359C318.694 22.0359 319.166 22.0859 319.699 22.1859C320.238 22.2803 320.757 22.4775 321.257 22.7775C321.763 23.0774 322.182 23.5301 322.515 24.1355C322.848 24.7409 323.015 25.5519 323.015 26.5684V35H321.049V33.267H320.949C320.816 33.5447 320.593 33.8419 320.282 34.1585C319.971 34.4751 319.557 34.7445 319.041 34.9667C318.524 35.1889 317.894 35.2999 317.15 35.2999ZM317.45 33.5336C318.227 33.5336 318.883 33.3809 319.416 33.0754C319.955 32.7699 320.36 32.3755 320.632 31.8923C320.91 31.4091 321.049 30.9008 321.049 30.3676V28.568C320.966 28.6679 320.782 28.7596 320.499 28.8429C320.221 28.9207 319.899 28.9901 319.532 29.0512C319.171 29.1067 318.819 29.1567 318.474 29.2012C318.136 29.24 317.861 29.2734 317.65 29.3011C317.138 29.3678 316.661 29.4761 316.216 29.6261C315.778 29.7705 315.422 29.9899 315.15 30.2843C314.883 30.5731 314.75 30.9675 314.75 31.4674C314.75 32.1506 315.003 32.6671 315.508 33.0171C316.019 33.3614 316.666 33.5336 317.45 33.5336Z" fill="black"/>
<path d="M331.77 40.0657C330.82 40.0657 330.003 39.9435 329.32 39.6991C328.637 39.4602 328.068 39.1436 327.612 38.7492C327.162 38.3604 326.804 37.9439 326.537 37.4995L328.104 36.3997C328.281 36.633 328.506 36.8996 328.779 37.1996C329.051 37.5051 329.423 37.7689 329.895 37.9911C330.373 38.2188 330.998 38.3327 331.77 38.3327C332.803 38.3327 333.655 38.0827 334.327 37.5828C335 37.0829 335.336 36.2997 335.336 35.2333V32.6338H335.169C335.024 32.8671 334.819 33.1559 334.552 33.5003C334.291 33.8391 333.914 34.1418 333.419 34.4085C332.93 34.6695 332.269 34.8 331.436 34.8C330.403 34.8 329.476 34.5556 328.654 34.0669C327.837 33.5781 327.19 32.8671 326.712 31.9339C326.24 31.0008 326.004 29.8677 326.004 28.5346C326.004 27.2238 326.235 26.0823 326.696 25.1103C327.157 24.1327 327.798 23.3773 328.62 22.8441C329.442 22.3053 330.392 22.0359 331.47 22.0359C332.303 22.0359 332.964 22.1748 333.453 22.4525C333.947 22.7247 334.325 23.0357 334.586 23.3857C334.852 23.73 335.058 24.0133 335.202 24.2355H335.402V22.2026H337.302V35.3666C337.302 36.4664 337.052 37.3606 336.552 38.0494C336.058 38.7437 335.391 39.2519 334.552 39.5741C333.719 39.9018 332.792 40.0657 331.77 40.0657ZM331.703 33.0337C332.492 33.0337 333.158 32.8532 333.703 32.4922C334.247 32.1311 334.661 31.6118 334.944 30.9341C335.227 30.2565 335.369 29.4456 335.369 28.5013C335.369 27.5793 335.23 26.7655 334.952 26.0601C334.675 25.3547 334.264 24.802 333.719 24.4021C333.175 24.0022 332.503 23.8022 331.703 23.8022C330.87 23.8022 330.175 24.0133 329.62 24.4355C329.07 24.8576 328.656 25.4241 328.379 26.1351C328.106 26.8461 327.97 27.6348 327.97 28.5013C327.97 29.39 328.109 30.176 328.387 30.8592C328.67 31.5368 329.087 32.07 329.637 32.4588C330.192 32.8421 330.881 33.0337 331.703 33.0337Z" fill="black"/>
<path d="M346.267 35.2666C345.034 35.2666 343.97 34.9944 343.076 34.4501C342.187 33.9002 341.501 33.1337 341.018 32.1506C340.54 31.1619 340.301 30.0121 340.301 28.7013C340.301 27.3904 340.54 26.2351 341.018 25.2353C341.501 24.2299 342.173 23.4468 343.034 22.8858C343.9 22.3192 344.911 22.0359 346.067 22.0359C346.733 22.0359 347.391 22.147 348.041 22.3692C348.691 22.5914 349.283 22.9524 349.816 23.4523C350.349 23.9467 350.774 24.6021 351.091 25.4186C351.407 26.2351 351.566 27.2404 351.566 28.4347V29.2678H341.701V27.5682H349.566C349.566 26.8461 349.422 26.2018 349.133 25.6352C348.849 25.0687 348.444 24.6215 347.916 24.2938C347.394 23.9661 346.778 23.8022 346.067 23.8022C345.284 23.8022 344.606 23.9967 344.034 24.3855C343.467 24.7687 343.031 25.2686 342.726 25.8852C342.42 26.5017 342.267 27.1627 342.267 27.8681V29.0012C342.267 29.9677 342.434 30.787 342.767 31.459C343.106 32.1256 343.576 32.6338 344.175 32.9837C344.775 33.3281 345.472 33.5003 346.267 33.5003C346.783 33.5003 347.25 33.4281 347.666 33.2837C348.089 33.1337 348.452 32.9115 348.758 32.6171C349.063 32.3172 349.299 31.9451 349.466 31.5007L351.366 32.0339C351.166 32.6782 350.83 33.2448 350.358 33.7336C349.885 34.2168 349.302 34.5945 348.608 34.8667C347.914 35.1333 347.133 35.2666 346.267 35.2666Z" fill="black"/>
<path d="M354.557 35V22.2026H356.456V24.1355H356.59C356.823 23.5023 357.245 22.9885 357.856 22.5942C358.467 22.1998 359.156 22.0026 359.922 22.0026C360.067 22.0026 360.247 22.0054 360.464 22.0109C360.68 22.0165 360.844 22.0248 360.955 22.0359V24.0355C360.889 24.0189 360.736 23.9939 360.497 23.9605C360.264 23.9217 360.017 23.9022 359.756 23.9022C359.134 23.9022 358.578 24.0328 358.089 24.2938C357.606 24.5493 357.223 24.9048 356.94 25.3603C356.662 25.8102 356.523 26.324 356.523 26.9016V35H354.557Z" fill="black"/>
</svg>
